<svg xmlns="http://www.w3.org/2000/svg" viewBox="0 0 32 32" width="32" height="32">
  <circle cx="16" cy="16" r="15" fill="#1d1d1f"/>
  <circle cx="16" cy="16" r="12" fill="none" stroke="#0066cc" stroke-width="2"/>
  <circle cx="16" cy="16" r="8" fill="none" stroke="#0066cc" stroke-width="1.5"/>
  <circle cx="16" cy="16" r="4" fill="#0066cc"/>
  <rect x="15" y="1" width="2" height="5" rx="1" fill="#0066cc"/>
  <rect x="15" y="26" width="2" height="5" rx="1" fill="#0066cc"/>
  <rect x="1" y="15" width="5" height="2" rx="1" fill="#0066cc"/>
  <rect x="26" y="15" width="5" height="2" rx="1" fill="#0066cc"/>
  <rect x="5.5" y="5.5" width="2" height="4" rx="1" fill="#0066cc" transform="rotate(-45 6.5 7.5)"/>
  <rect x="24.5" y="22.5" width="2" height="4" rx="1" fill="#0066cc" transform="rotate(-45 25.5 24.5)"/>
  <rect x="22.5" y="5.5" width="2" height="4" rx="1" fill="#0066cc" transform="rotate(45 23.5 7.5)"/>
  <rect x="3.5" y="22.5" width="2" height="4" rx="1" fill="#0066cc" transform="rotate(45 4.5 24.5)"/>
</svg>
